<svg width="375" height="476" viewBox="0 0 375 476" fill="none" xmlns="http://www.w3.org/2000/svg">
    <g clip-path="url(#clip0_4_3575)">
        <defs>
            <linearGradient id="paint0_linear_4_3575" x1="81.5412" y1="24" x2="7.93263" y2="97.6086"
                            gradientUnits="userSpaceOnUse">
                <stop stop-color="#111A58"/>
                <stop offset="1" stop-color="#21111A" stop-opacity="0"/>
            </linearGradient>
            <linearGradient id="paint1_linear_4_3575" x1="308.522" y1="229.122" x2="184.637" y2="389.588"
                            gradientUnits="userSpaceOnUse">
                <stop offset="0.24452" stop-color="#7F61E9"/>
                <stop offset="1" stop-color="white" stop-opacity="0"/>
            </linearGradient>
            <linearGradient id="paint2_linear_4_3575" x1="228.139" y1="289.109" x2="228.139" y2="395"
                            gradientUnits="userSpaceOnUse">
                <stop stop-color="white" stop-opacity="0"/>
                <stop offset="0.430555" stop-color="white" stop-opacity="0.430555"/>
                <stop offset="1" stop-color="white"/>
            </linearGradient>
            <linearGradient id="paint3_linear_4_3575" x1="228.14" y1="274.654" x2="228.14" y2="409.267"
                            gradientUnits="userSpaceOnUse">
                <stop stop-color="white" stop-opacity="0"/>
                <stop offset="0.430555" stop-color="white" stop-opacity="0.430555"/>
                <stop offset="1" stop-color="white"/>
            </linearGradient>
            <linearGradient id="paint4_linear_4_3575" x1="206.806" y1="233.969" x2="173.1" y2="239.831"
                            gradientUnits="userSpaceOnUse">
                <stop stop-color="#EEB03A"/>
                <stop offset="0.96436" stop-color="white" stop-opacity="0"/>
            </linearGradient>
            <linearGradient id="paint5_linear_4_3575" x1="269.13" y1="414.997" x2="243.466" y2="419.479"
                            gradientUnits="userSpaceOnUse">
                <stop stop-color="white"/>
                <stop offset="0.96436" stop-color="white" stop-opacity="0"/>
            </linearGradient>
            <linearGradient id="paint6_linear_4_3575" x1="58.6869" y1="333.166" x2="206.188" y2="333.166"
                            gradientUnits="userSpaceOnUse">
                <stop stop-color="white"/>
                <stop offset="1" stop-color="white" stop-opacity="0"/>
            </linearGradient>
            <linearGradient id="paint7_linear_4_3575" x1="67.0945" y1="369.676" x2="205.752" y2="354.956"
                            gradientUnits="userSpaceOnUse">
                <stop stop-color="white"/>
                <stop offset="1" stop-color="white" stop-opacity="0"/>
            </linearGradient>
            <clipPath id="clip0_4_3575">
                <rect width="375" height="476" fill="white"/>
            </clipPath>
            <clipPath id="clip1_4_3575">
                <rect width="100" height="85.3035" fill="white" transform="translate(39 24)"/>
            </clipPath>
            <clipPath id="clip2_4_3575">
                <rect width="350" height="337.159" fill="white" transform="translate(17 139)"/>
            </clipPath>
        </defs>
        <rect width="375" height="476" fill="#F7F7F8"/>
        <g clip-path="url(#clip1_4_3575)">
            <path fill-rule="evenodd" clip-rule="evenodd"
                  d="M81.5412 27.1773C63.5406 27.1773 45.3019 38.3927 40.6146 54.8938C45.6797 37.0626 62.0829 24 81.5412 24C105.036 24 124.082 43.0463 124.082 66.5412C124.082 90.0358 105.036 109.082 81.5412 109.082C58.0463 109.082 39 90.0358 39 66.5412C39 88.2811 59.8011 103.434 81.5412 103.434C103.281 103.434 119.493 88.2811 119.493 66.5412C119.493 44.8011 103.281 27.1773 81.5412 27.1773Z"
                  fill="url(#paint0_linear_4_3575)"/>
            <path d="M60.5619 68.629C59.8219 69.4453 58.8523 70.0322 57.602 70.0322C55.8668 70.0322 54.2848 68.782 54.2848 66.7405C54.2848 64.7248 55.8413 63.4743 57.4744 63.4743C58.5206 63.4743 59.4647 63.7552 60.3323 64.5973L61.7102 62.2753C60.6385 61.2034 58.9799 60.7188 57.0916 60.7188C53.5959 60.7188 51.1462 63.398 51.1462 66.7405C51.1462 70.3641 53.6469 72.7625 57.3723 72.7625C59.2351 72.7625 60.9702 72.0737 61.9398 70.7721L60.5619 68.629Z"
                  fill="#111A58"/>
            <path d="M72.1288 72.482H75.0633V60.9993H64.2952V72.482H67.2296V63.7552H72.1288V72.482Z" fill="#111A58"/>
            <path d="M89.3987 60.9993H86.0559L83.9891 67.251C83.785 67.8379 83.6827 68.3993 83.5808 68.9351C83.4022 68.3737 83.2492 67.8379 83.0195 67.2766L80.3403 60.9993H76.8188L82.1262 72.482L81.8712 73.0942C81.3863 74.2935 80.8505 74.8804 80.1105 74.8804C79.6511 74.8804 79.2176 74.6507 78.9112 74.4721L77.9671 76.6922C78.6307 77.1769 79.3962 77.5852 80.4422 77.5852C82.1262 77.5852 83.1981 76.59 84.8821 72.482L89.3987 60.9993Z"
                  fill="#111A58"/>
            <path d="M90.0579 63.9338H93.8345V72.482H96.7687V63.9338H100.52V60.9993H90.0579V63.9338Z" fill="#111A58"/>
            <path d="M110.581 72.482H113.516V60.9993H110.581V65.3373H105.555V60.9993H102.62V72.482H105.555V68.0929H110.581V72.482Z"
                  fill="#111A58"/>
            <path d="M138.459 60.9993H134.759L130.625 66.6897L135.167 72.482H138.995L134.044 66.46L138.459 60.9993ZM127.589 72.482H130.523V60.9993H127.589V72.482Z"
                  fill="#111A58"/>
        </g>
        <g clip-path="url(#clip2_4_3575)">
            <path d="M35.6039 388.077C14.294 311.296 35.6038 209.823 100.546 164.837C221.514 81.0419 316.873 222.586 352.029 284.236C386.36 344.443 366.233 437.629 243.453 455.387C120.671 473.143 50.9638 443.42 35.6039 388.077Z"
                  fill="#7C87D6"/>
            <path d="M24.9755 403.428C3.66561 326.647 24.9754 225.175 89.9173 180.189C210.886 96.3935 306.245 237.938 341.399 299.588C375.732 359.794 355.605 452.981 232.825 470.739C110.043 488.496 40.3352 458.771 24.9755 403.428Z"
                  fill="#111A58"/>
            <path d="M261.39 296.429C274.843 319.729 266.859 349.524 243.559 362.976C220.259 376.429 190.464 368.445 177.012 345.145C163.559 321.845 171.543 292.05 194.843 278.598C218.143 265.145 247.938 273.129 261.39 296.429Z"
                  fill="url(#paint1_linear_4_3575)"/>
            <path d="M248.279 375.464C210.635 398.051 171.108 401.627 160.003 383.181C148.898 364.735 170.355 331.232 208 308.645C245.644 286.058 285.171 282.482 296.276 300.928C307.381 319.374 285.924 352.689 248.279 375.464ZM209.694 311.28C175.249 331.985 155.674 362.665 165.838 379.605C176.002 396.545 212.329 393.346 246.774 372.641C281.219 351.936 300.794 321.256 290.63 304.316C280.277 287.376 243.95 290.576 209.694 311.28Z"
                  fill="url(#paint2_linear_4_3575)"/>
            <path d="M253.738 384.499C205.93 413.297 155.674 417.626 141.558 394.098C127.441 370.571 154.733 328.22 202.542 299.422C250.35 270.624 300.606 266.295 314.723 289.823C328.839 313.163 301.547 355.701 253.738 384.499ZM204.612 302.999C160.945 329.35 135.911 368.312 148.898 389.769C161.886 411.227 208 407.274 251.668 380.923C295.336 354.572 320.369 315.609 307.382 294.152C294.394 272.695 248.28 276.647 204.612 302.999Z"
                  fill="url(#paint3_linear_4_3575)"/>
            <path d="M198.914 207.815L195.856 229.326L174.055 232.344L195.856 235.362L198.914 256.874L201.973 235.362L223.773 232.344L201.973 229.326L198.914 207.815Z"
                  fill="url(#paint4_linear_4_3575)"/>
            <path d="M176.196 351.371C177.378 351.371 178.336 350.413 178.336 349.23C178.336 348.048 177.378 347.09 176.196 347.09C175.014 347.09 174.055 348.048 174.055 349.23C174.055 350.413 175.014 351.371 176.196 351.371Z"
                  fill="#E5AD44"/>
            <path d="M176.196 314.494C177.378 314.494 178.336 313.536 178.336 312.354C178.336 311.172 177.378 310.214 176.196 310.214C175.014 310.214 174.055 311.172 174.055 312.354C174.055 313.536 175.014 314.494 176.196 314.494Z"
                  fill="#F0F0F0"/>
            <path d="M176.196 387.26C177.378 387.26 178.336 386.375 178.336 385.284C178.336 384.193 177.378 383.309 176.196 383.309C175.014 383.309 174.055 384.193 174.055 385.284C174.055 386.375 175.014 387.26 176.196 387.26Z"
                  fill="#7C87D6"/>
            <path d="M122.033 216.375C123.306 216.375 124.338 215.27 124.338 213.906C124.338 212.542 123.306 211.437 122.033 211.437C120.76 211.437 119.728 212.542 119.728 213.906C119.728 215.27 120.76 216.375 122.033 216.375Z"
                  fill="#E6E6E6"/>
            <path d="M323.867 351.371C325.14 351.371 326.172 350.265 326.172 348.901C326.172 347.538 325.14 346.432 323.867 346.432C322.594 346.432 321.562 347.538 321.562 348.901C321.562 350.265 322.594 351.371 323.867 351.371Z"
                  fill="#E6E6E6"/>
            <path d="M112.155 443.892C113.428 443.892 114.46 442.786 114.46 441.422C114.46 440.059 113.428 438.953 112.155 438.953C110.882 438.953 109.85 440.059 109.85 441.422C109.85 442.786 110.882 443.892 112.155 443.892Z"
                  fill="#E6E6E6"/>
            <path d="M42.0235 299.677C43.2965 299.677 44.3283 298.572 44.3283 297.208C44.3283 295.844 43.2965 294.739 42.0235 294.739C40.7506 294.739 39.7188 295.844 39.7188 297.208C39.7188 298.572 40.7506 299.677 42.0235 299.677Z"
                  fill="#E6E6E6"/>
            <path d="M33.1337 342.151C33.861 342.151 34.4507 341.562 34.4507 340.834C34.4507 340.107 33.861 339.517 33.1337 339.517C32.4063 339.517 31.8167 340.107 31.8167 340.834C31.8167 341.562 32.4063 342.151 33.1337 342.151Z"
                  fill="#E6E6E6"/>
            <path d="M235.627 447.514C236.354 447.514 236.944 446.924 236.944 446.197C236.944 445.469 236.354 444.88 235.627 444.88C234.899 444.88 234.31 445.469 234.31 446.197C234.31 446.924 234.899 447.514 235.627 447.514Z"
                  fill="#E6E6E6"/>
            <path d="M185.25 464.635C185.977 464.635 186.567 464.045 186.567 463.318C186.567 462.591 185.977 462.001 185.25 462.001C184.523 462.001 183.933 462.591 183.933 463.318C183.933 464.045 184.523 464.635 185.25 464.635Z"
                  fill="#E6E6E6"/>
            <path d="M139.154 416.893C139.882 416.893 140.471 416.303 140.471 415.576C140.471 414.848 139.882 414.259 139.154 414.259C138.427 414.259 137.837 414.848 137.837 415.576C137.837 416.303 138.427 416.893 139.154 416.893Z"
                  fill="#E6E6E6"/>
            <path d="M97.6679 246.338C98.3952 246.338 98.9849 245.748 98.9849 245.021C98.9849 244.293 98.3952 243.704 97.6679 243.704C96.9405 243.704 96.3508 244.293 96.3508 245.021C96.3508 245.748 96.9405 246.338 97.6679 246.338Z"
                  fill="#E6E6E6"/>
            <path d="M78.2418 215.058C78.9692 215.058 79.5589 214.469 79.5589 213.741C79.5589 213.014 78.9692 212.424 78.2418 212.424C77.5145 212.424 76.9248 213.014 76.9248 213.741C76.9248 214.469 77.5145 215.058 78.2418 215.058Z"
                  fill="#E6E6E6"/>
            <path d="M232.993 202.876C233.72 202.876 234.31 202.286 234.31 201.559C234.31 200.831 233.72 200.242 232.993 200.242C232.265 200.242 231.676 200.831 231.676 201.559C231.676 202.286 232.265 202.876 232.993 202.876Z"
                  fill="#E6E6E6"/>
            <path d="M334.074 318.116C334.802 318.116 335.391 317.526 335.391 316.799C335.391 316.071 334.802 315.482 334.074 315.482C333.347 315.482 332.757 316.071 332.757 316.799C332.757 317.526 333.347 318.116 334.074 318.116Z"
                  fill="#E6E6E6"/>
            <path d="M287.978 259.508C288.706 259.508 289.295 258.918 289.295 258.191C289.295 257.464 288.706 256.874 287.978 256.874C287.251 256.874 286.661 257.464 286.661 258.191C286.661 258.918 287.251 259.508 287.978 259.508Z"
                  fill="#E6E6E6"/>
            <path d="M153.641 172.255C154.369 172.255 154.959 171.665 154.959 170.938C154.959 170.211 154.369 169.621 153.641 169.621C152.914 169.621 152.324 170.211 152.324 170.938C152.324 171.665 152.914 172.255 153.641 172.255Z"
                  fill="#E6E6E6"/>
            <path d="M172.738 200.242C173.466 200.242 174.055 199.652 174.055 198.925C174.055 198.197 173.466 197.608 172.738 197.608C172.011 197.608 171.421 198.197 171.421 198.925C171.421 199.652 172.011 200.242 172.738 200.242Z"
                  fill="#E6E6E6"/>
            <path d="M179.653 269.056C180.38 269.056 180.97 268.467 180.97 267.739C180.97 267.012 180.38 266.422 179.653 266.422C178.926 266.422 178.336 267.012 178.336 267.739C178.336 268.467 178.926 269.056 179.653 269.056Z"
                  fill="#E6E6E6"/>
            <path d="M306.088 381.004C306.815 381.004 307.405 380.414 307.405 379.687C307.405 378.959 306.815 378.37 306.088 378.37C305.36 378.37 304.771 378.959 304.771 379.687C304.771 380.414 305.36 381.004 306.088 381.004Z"
                  fill="#E6E6E6"/>
            <path d="M312.343 423.478C313.071 423.478 313.66 422.888 313.66 422.161C313.66 421.433 313.071 420.844 312.343 420.844C311.616 420.844 311.026 421.433 311.026 422.161C311.026 422.888 311.616 423.478 312.343 423.478Z"
                  fill="#E6E6E6"/>
            <path d="M263.12 395.162L260.79 411.476L244.187 413.765L260.79 416.054L263.12 432.368L265.449 416.054L282.052 413.765L265.449 411.476L263.12 395.162Z"
                  fill="url(#paint5_linear_4_3575)"/>
            <path d="M194.461 302.998L112.277 292.498C112.055 292.469 111.832 292.455 111.609 292.454C111.389 292.454 111.169 292.468 110.951 292.496C110.733 292.524 110.518 292.566 110.305 292.623C110.09 292.68 109.879 292.751 109.674 292.836C109.472 292.919 109.276 293.014 109.086 293.121C108.893 293.228 108.707 293.347 108.529 293.477C108.346 293.609 108.171 293.753 108.005 293.905C107.833 294.062 107.669 294.229 107.515 294.404C107.357 294.583 107.209 294.771 107.069 294.967C106.929 295.164 106.797 295.37 106.674 295.583C106.551 295.798 106.437 296.02 106.331 296.252C106.226 296.483 106.13 296.722 106.043 296.969C105.953 297.224 105.874 297.485 105.807 297.752C105.739 298.018 105.682 298.29 105.637 298.566C105.592 298.841 105.558 299.121 105.535 299.406C105.511 299.691 105.499 299.979 105.499 300.271C105.5 300.562 105.512 300.852 105.535 301.142C105.557 301.431 105.592 301.718 105.637 302.003C105.683 302.289 105.74 302.572 105.807 302.852C105.875 303.132 105.954 303.409 106.044 303.683C106.131 303.947 106.227 304.206 106.332 304.458C106.437 304.711 106.552 304.957 106.675 305.196C106.798 305.435 106.93 305.667 107.07 305.892C107.21 306.118 107.359 306.335 107.516 306.544C107.673 306.753 107.836 306.953 108.005 307.143C108.175 307.331 108.349 307.509 108.53 307.676C108.71 307.843 108.896 308 109.087 308.145C109.276 308.289 109.472 308.423 109.674 308.546C109.878 308.671 110.089 308.785 110.306 308.886C110.516 308.984 110.732 309.069 110.952 309.142C111.168 309.214 111.387 309.271 111.61 309.316C111.83 309.36 112.053 309.39 112.277 309.407L194.462 315.431C194.701 315.449 194.941 315.425 195.172 315.36C195.289 315.327 195.404 315.285 195.515 315.233C195.63 315.18 195.741 315.117 195.847 315.047C195.955 314.975 196.057 314.897 196.155 314.812C196.257 314.723 196.353 314.628 196.444 314.527C196.54 314.421 196.631 314.309 196.715 314.194C196.803 314.075 196.887 313.948 196.967 313.813C197.048 313.678 197.124 313.538 197.195 313.391C197.267 313.245 197.334 313.093 197.397 312.935C197.459 312.778 197.518 312.615 197.571 312.446C197.624 312.278 197.673 312.104 197.717 311.926C197.763 311.742 197.803 311.554 197.836 311.362C197.869 311.171 197.898 310.977 197.921 310.78C197.944 310.583 197.962 310.384 197.973 310.182C197.984 309.979 197.99 309.775 197.99 309.568C197.989 309.362 197.984 309.157 197.973 308.952C197.962 308.748 197.945 308.545 197.921 308.343C197.898 308.142 197.87 307.942 197.836 307.744C197.802 307.546 197.762 307.35 197.717 307.156C197.673 306.969 197.624 306.786 197.571 306.607C197.518 306.43 197.46 306.256 197.397 306.085C197.334 305.914 197.266 305.748 197.195 305.587C197.124 305.426 197.048 305.27 196.967 305.119C196.887 304.968 196.803 304.824 196.715 304.688C196.628 304.552 196.538 304.422 196.444 304.3C196.351 304.178 196.254 304.063 196.155 303.957C196.057 303.853 195.955 303.753 195.847 303.66C195.742 303.569 195.63 303.484 195.515 303.406C195.405 303.333 195.29 303.268 195.172 303.211C195.058 303.156 194.941 303.11 194.82 303.074C194.703 303.039 194.582 303.013 194.461 302.998Z"
                  fill="white"/>
            <path d="M149.666 349.983C150.186 350.851 151.007 351.496 151.971 351.797C152.935 352.099 153.976 352.035 154.897 351.618C155.817 351.2 156.552 350.459 156.963 349.534C157.374 348.61 157.432 347.566 157.125 346.602L173.053 313.809L165.429 309.178L151.674 344.01C151.621 344.03 151.569 344.052 151.518 344.074C151.467 344.096 151.416 344.12 151.366 344.144C151.315 344.169 151.265 344.195 151.215 344.222C151.165 344.249 151.116 344.277 151.067 344.306C150.13 344.873 149.456 345.789 149.193 346.854C148.931 347.918 149.1 349.044 149.665 349.983L149.666 349.983Z"
                  fill="#FFDBDB"/>
            <path d="M170.013 326.454L158.698 323.548C158.698 323.548 159.067 322.711 159.668 321.324C160.268 319.938 161.107 318.004 162.051 315.809C162.995 313.614 164.042 311.161 165.064 308.737C166.087 306.312 167.082 303.917 167.92 301.841C168.757 299.765 169.709 298.521 170.665 297.824C171.457 297.221 172.454 296.956 173.44 297.085C174.206 297.199 174.938 297.479 175.587 297.904C175.894 298.095 176.182 298.314 176.448 298.559L179.072 303.341L170.013 326.454Z"
                  fill="#EEB03A"/>
            <path fill-rule="evenodd" clip-rule="evenodd"
                  d="M78.6393 323.964C78.9092 323.913 79.1819 323.877 79.4558 323.857L79.4555 323.858C79.7258 323.838 79.9971 323.833 80.2681 323.844C80.5338 323.855 80.7988 323.882 81.0616 323.924C81.5838 324.007 82.0941 324.152 82.5821 324.356C82.8185 324.454 83.0493 324.566 83.2732 324.691C83.4974 324.815 83.7144 324.952 83.9235 325.1C84.1346 325.25 84.3374 325.411 84.531 325.583C84.7279 325.758 84.9152 325.943 85.093 326.138C85.4545 326.533 85.7762 326.964 86.0528 327.423C86.1924 327.656 86.3221 327.896 86.4423 328.143C86.5605 328.391 86.6688 328.647 86.7673 328.911C86.8684 329.183 86.9569 329.461 87.0333 329.744C87.1094 330.027 87.1729 330.315 87.2236 330.607C87.2743 330.899 87.3125 331.196 87.3379 331.497C87.3632 331.798 87.3761 332.102 87.3761 332.41C87.3761 332.719 87.3636 333.026 87.3379 333.332C87.3122 333.637 87.2743 333.942 87.2236 334.245C87.1726 334.547 87.1091 334.847 87.0333 335.145C86.9573 335.444 86.8684 335.739 86.7673 336.033C86.6695 336.316 86.5612 336.593 86.4423 336.865C86.3235 337.137 86.1941 337.403 86.0544 337.663C85.9148 337.923 85.765 338.176 85.605 338.423C85.445 338.669 85.2741 338.909 85.093 339.142C84.9126 339.375 84.7249 339.597 84.5297 339.809C84.3344 340.021 84.1319 340.223 83.9222 340.415C83.7124 340.605 83.4955 340.786 83.2719 340.955C83.048 341.123 82.8182 341.282 82.5821 341.429C82.3398 341.579 82.0899 341.717 81.8337 341.842C81.5822 341.964 81.3243 342.073 81.0613 342.168C80.8012 342.262 80.5364 342.341 80.2678 342.407C79.9997 342.471 79.7284 342.521 79.4552 342.556C79.1842 342.591 78.9115 342.61 78.6383 342.614C78.3696 342.618 78.1009 342.606 77.8332 342.579C77.3002 342.523 76.7757 342.404 76.2709 342.223C75.7783 342.047 75.3078 341.815 74.8683 341.531C74.6454 341.387 74.431 341.231 74.2256 341.064C74.0158 340.893 73.8153 340.71 73.6253 340.517C73.4321 340.321 73.2493 340.115 73.0778 339.899C72.9046 339.682 72.7426 339.456 72.5928 339.223C72.4403 338.985 72.3001 338.739 72.1723 338.487C72.0429 338.232 71.9247 337.968 71.8171 337.696C71.7068 337.414 71.6099 337.125 71.5266 336.831C71.4433 336.537 71.3739 336.237 71.3182 335.931C71.2623 335.626 71.2204 335.316 71.1925 335.001C71.1645 334.686 71.1506 334.366 71.1506 334.043C71.1506 333.72 71.1645 333.398 71.1925 333.077C71.2204 332.756 71.2623 332.438 71.3182 332.121C71.3739 331.804 71.4433 331.491 71.5266 331.18C71.6099 330.868 71.7071 330.56 71.818 330.255C71.9247 329.961 72.0433 329.674 72.1733 329.393C72.3034 329.112 72.4433 328.839 72.5931 328.572C72.7439 328.306 72.9059 328.048 73.0781 327.797C73.2503 327.546 73.4327 327.304 73.6253 327.07C73.8179 326.836 74.0178 326.614 74.2256 326.403C74.433 326.192 74.6473 325.993 74.8679 325.807C75.0889 325.62 75.3164 325.446 75.5508 325.283C75.7853 325.121 76.025 324.97 76.2706 324.832C76.5215 324.692 76.7796 324.565 77.0437 324.451C77.3018 324.341 77.5655 324.244 77.8342 324.162C78.0986 324.081 78.3673 324.015 78.6393 323.964ZM112.277 324.706L194.461 326.679C194.581 326.682 194.702 326.694 194.82 326.718C194.94 326.741 195.058 326.775 195.172 326.818C195.29 326.862 195.405 326.915 195.515 326.977C195.63 327.042 195.742 327.116 195.847 327.197C195.955 327.278 196.058 327.367 196.155 327.461C196.257 327.56 196.354 327.665 196.445 327.774C196.538 327.886 196.629 328.006 196.716 328.134C196.803 328.262 196.887 328.397 196.968 328.539C197.048 328.682 197.124 328.83 197.196 328.983C197.268 329.136 197.335 329.295 197.397 329.459C197.459 329.622 197.517 329.791 197.57 329.965C197.624 330.139 197.673 330.317 197.716 330.5C197.762 330.69 197.802 330.882 197.836 331.075C197.87 331.269 197.898 331.466 197.921 331.666C197.945 331.865 197.962 332.067 197.973 332.271C197.983 332.475 197.989 332.68 197.99 332.884C197.99 333.091 197.984 333.296 197.973 333.499C197.961 333.703 197.944 333.904 197.921 334.104C197.898 334.304 197.869 334.501 197.836 334.695C197.802 334.89 197.763 335.081 197.716 335.269C197.673 335.452 197.624 335.63 197.571 335.802C197.517 335.975 197.459 336.145 197.397 336.312C197.334 336.476 197.267 336.635 197.195 336.788C197.124 336.942 197.048 337.091 196.967 337.234C196.887 337.376 196.803 337.512 196.715 337.641C196.628 337.77 196.538 337.89 196.444 338.002C196.354 338.112 196.257 338.217 196.155 338.317C196.058 338.412 195.955 338.501 195.847 338.584C195.741 338.665 195.63 338.739 195.515 338.805C195.405 338.868 195.29 338.922 195.172 338.967C195.058 339.011 194.94 339.045 194.82 339.069C194.702 339.093 194.581 339.107 194.461 339.111L112.277 341.616C112.055 341.623 111.832 341.616 111.61 341.595C111.388 341.573 111.169 341.538 110.952 341.488C110.733 341.438 110.517 341.375 110.306 341.298C110.09 341.22 109.879 341.129 109.674 341.025C109.472 340.922 109.276 340.809 109.087 340.684C108.894 340.557 108.708 340.42 108.53 340.273C108.347 340.122 108.172 339.962 108.005 339.793C107.836 339.621 107.673 339.439 107.516 339.245C107.359 339.052 107.21 338.85 107.07 338.64C106.93 338.43 106.798 338.211 106.675 337.985C106.552 337.759 106.437 337.525 106.332 337.284C106.227 337.042 106.131 336.793 106.044 336.536C105.954 336.272 105.875 336.003 105.807 335.73C105.74 335.457 105.683 335.181 105.637 334.902C105.591 334.621 105.557 334.338 105.535 334.051C105.512 333.764 105.5 333.475 105.499 333.183C105.499 332.892 105.511 332.603 105.535 332.315C105.558 332.028 105.592 331.745 105.637 331.464C105.682 331.183 105.739 330.906 105.807 330.633C105.874 330.359 105.953 330.09 106.043 329.825C106.13 329.569 106.226 329.32 106.331 329.078C106.437 328.835 106.551 328.6 106.674 328.374C106.797 328.146 106.929 327.927 107.069 327.716C107.21 327.504 107.358 327.301 107.515 327.106C107.672 326.912 107.835 326.728 108.005 326.555C108.171 326.386 108.346 326.224 108.529 326.072C108.707 325.924 108.893 325.786 109.086 325.658C109.275 325.532 109.472 325.417 109.674 325.313C109.878 325.208 110.089 325.115 110.305 325.036C110.516 324.958 110.732 324.893 110.951 324.842C111.386 324.741 111.831 324.695 112.277 324.706Z"
                  fill="url(#paint6_linear_4_3575)"/>
            <path fill-rule="evenodd" clip-rule="evenodd"
                  d="M112.277 354.903L194.461 348.88C194.7 348.862 194.94 348.886 195.171 348.951C195.288 348.983 195.403 349.026 195.514 349.078C195.629 349.131 195.74 349.194 195.846 349.264C195.954 349.336 196.057 349.414 196.154 349.499C196.256 349.588 196.353 349.684 196.444 349.784C196.54 349.89 196.63 350.001 196.715 350.117C196.802 350.236 196.886 350.362 196.967 350.498C197.047 350.633 197.124 350.773 197.196 350.919C197.267 351.065 197.334 351.217 197.397 351.375C197.46 351.532 197.518 351.695 197.571 351.864C197.624 352.032 197.673 352.205 197.716 352.384C197.762 352.568 197.802 352.756 197.836 352.947C197.87 353.139 197.898 353.333 197.921 353.531C197.945 353.728 197.962 353.927 197.972 354.129C197.983 354.331 197.989 354.535 197.99 354.741C197.99 354.947 197.984 355.153 197.973 355.357C197.962 355.562 197.944 355.765 197.921 355.966C197.898 356.168 197.869 356.367 197.836 356.566C197.802 356.764 197.763 356.96 197.716 357.154C197.673 357.341 197.624 357.524 197.571 357.703C197.517 357.882 197.459 358.057 197.397 358.228C197.334 358.398 197.267 358.565 197.195 358.726C197.124 358.888 197.048 359.044 196.967 359.194C196.887 359.345 196.803 359.488 196.715 359.625C196.628 359.762 196.538 359.891 196.444 360.013C196.35 360.135 196.253 360.249 196.155 360.356C196.058 360.46 195.955 360.56 195.847 360.653C195.742 360.744 195.63 360.829 195.515 360.907C195.405 360.98 195.29 361.045 195.172 361.102C195.058 361.157 194.941 361.203 194.82 361.239C194.703 361.274 194.582 361.3 194.461 361.315L112.277 371.813C112.056 371.842 111.833 371.856 111.61 371.856C111.39 371.857 111.17 371.843 110.952 371.815C110.734 371.787 110.518 371.744 110.306 371.688C110.091 371.63 109.88 371.559 109.674 371.474C109.473 371.392 109.277 371.297 109.087 371.19C108.894 371.082 108.708 370.963 108.53 370.834C108.347 370.701 108.172 370.558 108.005 370.405C107.833 370.248 107.67 370.082 107.516 369.907C107.358 369.727 107.209 369.539 107.07 369.344C106.93 369.147 106.798 368.941 106.675 368.727C106.552 368.513 106.437 368.29 106.332 368.059C106.227 367.828 106.131 367.589 106.044 367.342C105.954 367.086 105.875 366.825 105.807 366.559C105.74 366.293 105.683 366.021 105.637 365.745C105.591 365.469 105.557 365.188 105.535 364.904C105.512 364.619 105.5 364.331 105.499 364.039C105.499 363.748 105.511 363.457 105.535 363.168C105.558 362.879 105.592 362.592 105.637 362.307C105.682 362.022 105.739 361.739 105.807 361.459C105.874 361.178 105.953 360.901 106.043 360.628C106.13 360.363 106.226 360.104 106.331 359.852C106.437 359.6 106.551 359.354 106.674 359.115C106.797 358.876 106.929 358.644 107.069 358.419C107.21 358.194 107.358 357.976 107.515 357.765C107.672 357.556 107.835 357.356 108.005 357.167C108.174 356.978 108.349 356.8 108.529 356.633C108.709 356.468 108.895 356.311 109.086 356.165C109.275 356.021 109.471 355.887 109.674 355.764C109.878 355.639 110.089 355.526 110.305 355.424C110.515 355.326 110.731 355.24 110.951 355.168C111.167 355.096 111.386 355.038 111.609 354.994C111.829 354.95 112.053 354.919 112.277 354.903ZM78.6393 357.414C78.9092 357.364 79.1819 357.328 79.4558 357.308L79.4555 357.308C79.7258 357.288 79.9971 357.284 80.2681 357.295C80.5338 357.306 80.7988 357.332 81.0616 357.374C81.5838 357.458 82.0941 357.603 82.5821 357.807C82.8185 357.905 83.0493 358.017 83.2732 358.141C83.4974 358.266 83.7144 358.402 83.9235 358.551C84.1346 358.701 84.3374 358.862 84.531 359.034C84.7279 359.209 84.9152 359.394 85.093 359.589C85.4545 359.984 85.7762 360.415 86.0528 360.874C86.1924 361.107 86.3221 361.346 86.4423 361.594C86.5605 361.842 86.6688 362.097 86.7673 362.361C86.8684 362.634 86.9569 362.912 87.0333 363.195C87.1094 363.478 87.1729 363.766 87.2236 364.058C87.2743 364.35 87.3125 364.647 87.3379 364.947C87.3632 365.248 87.3761 365.553 87.3761 365.861C87.3761 366.169 87.3636 366.477 87.3379 366.782C87.3122 367.088 87.2743 367.393 87.2236 367.695C87.1726 367.998 87.1091 368.298 87.0333 368.596C86.9573 368.894 86.8684 369.19 86.7673 369.483C86.6695 369.767 86.5612 370.044 86.4423 370.316C86.3235 370.588 86.1941 370.854 86.0544 371.114C85.9148 371.373 85.765 371.627 85.605 371.873C85.445 372.12 85.2741 372.36 85.093 372.593C84.9126 372.826 84.7249 373.048 84.5297 373.26C84.3344 373.472 84.1319 373.674 83.9222 373.865C83.7124 374.056 83.4955 374.237 83.2719 374.405C83.048 374.574 82.8182 374.732 82.5821 374.88C82.3398 375.03 82.0899 375.167 81.8337 375.292C81.5822 375.414 81.3243 375.523 81.0613 375.618C80.8012 375.712 80.5364 375.792 80.2678 375.857C79.9997 375.922 79.7284 375.972 79.4552 376.007C79.1842 376.042 78.9115 376.061 78.6383 376.065C78.3696 376.069 78.1009 376.057 77.8332 376.029C77.3002 375.974 76.7757 375.854 76.2709 375.673C75.7783 375.498 75.3078 375.265 74.8683 374.982C74.6454 374.838 74.431 374.682 74.2256 374.514C74.0158 374.343 73.8153 374.161 73.6253 373.968C73.4321 373.772 73.2493 373.566 73.0778 373.35C72.9046 373.133 72.7426 372.907 72.5928 372.674C72.4403 372.435 72.3001 372.19 72.1723 371.938C72.0429 371.683 71.9247 371.419 71.8171 371.147C71.7068 370.864 71.6099 370.576 71.5266 370.281C71.4433 369.987 71.3739 369.687 71.3182 369.382C71.2623 369.077 71.2204 368.767 71.1925 368.451C71.1645 368.136 71.1506 367.817 71.1506 367.494C71.1506 367.17 71.1645 366.848 71.1925 366.528C71.2204 366.207 71.2623 365.888 71.3182 365.572C71.3739 365.255 71.4433 364.942 71.5266 364.63C71.6099 364.319 71.7071 364.011 71.818 363.706C71.9247 363.412 72.0433 363.125 72.1733 362.844C72.3034 362.563 72.4433 362.289 72.5931 362.023C72.7439 361.757 72.9059 361.499 73.0781 361.248C73.2503 360.997 73.4327 360.755 73.6253 360.521C73.8179 360.287 74.0178 360.064 74.2256 359.854C74.433 359.643 74.6473 359.444 74.8679 359.258C75.0889 359.071 75.3164 358.896 75.5508 358.734C75.7853 358.571 76.025 358.421 76.2706 358.283C76.5215 358.142 76.7796 358.015 77.0437 357.902C77.3018 357.791 77.5655 357.695 77.8342 357.612C78.0986 357.532 78.3673 357.465 78.6393 357.414Z"
                  fill="url(#paint7_linear_4_3575)"/>
            <path d="M79.457 287.619C79.1847 287.613 78.9118 287.622 78.6405 287.646C78.3702 287.67 78.1012 287.711 77.8355 287.766C77.5681 287.822 77.304 287.893 77.0449 287.979C76.7818 288.067 76.5237 288.169 76.2718 288.285C76.0255 288.399 75.7852 288.526 75.5521 288.665C75.3166 288.805 75.0888 288.958 74.8692 289.122C74.6459 289.289 74.4316 289.468 74.2265 289.656C74.0177 289.848 73.8175 290.051 73.6253 290.266C73.4326 290.482 73.2502 290.706 73.078 290.94C72.9058 291.174 72.7438 291.417 72.593 291.668C72.4426 291.923 72.3023 292.184 72.1722 292.451C72.0419 292.718 71.9237 292.994 71.817 293.279C71.7067 293.572 71.6099 293.87 71.5266 294.174C71.4433 294.477 71.3738 294.784 71.3181 295.095C71.2622 295.407 71.2204 295.721 71.1924 296.039C71.1644 296.356 71.1506 296.676 71.1506 297C71.1506 297.322 71.1644 297.643 71.1924 297.96C71.2204 298.278 71.2622 298.592 71.3181 298.903C71.3738 299.214 71.4433 299.52 71.5266 299.823C71.6099 300.125 71.7067 300.423 71.817 300.716C71.9246 300.999 72.0428 301.274 72.1722 301.542C72.3023 301.808 72.4429 302.067 72.594 302.317C72.7451 302.568 72.9068 302.809 73.079 303.042C73.2512 303.276 73.4336 303.499 73.6262 303.712C73.8189 303.926 74.019 304.128 74.2265 304.317C74.4306 304.505 74.644 304.683 74.8659 304.849C75.0855 305.012 75.3134 305.163 75.5488 305.302C75.7819 305.44 76.0222 305.565 76.2685 305.677C76.5204 305.792 76.7785 305.892 77.0416 305.978C77.5595 306.146 78.0949 306.253 78.6372 306.298C79.1801 306.343 79.7267 306.326 80.266 306.249C80.5334 306.21 80.7984 306.156 81.0599 306.087C81.3216 306.018 81.5794 305.934 81.832 305.836C82.0878 305.736 82.3374 305.623 82.5807 305.497C82.8178 305.373 83.0486 305.238 83.2718 305.091C83.4964 304.943 83.7133 304.783 83.9221 304.613C84.1318 304.443 84.3343 304.261 84.5296 304.067C84.7248 303.874 84.9125 303.67 85.0926 303.455C85.274 303.239 85.4449 303.016 85.6049 302.785C85.7649 302.554 85.9148 302.315 86.0544 302.069C86.1946 301.823 86.3237 301.57 86.4422 301.309C86.5604 301.049 86.6688 300.782 86.7672 300.51C86.8683 300.226 86.9572 299.94 87.0329 299.648C87.109 299.358 87.1725 299.063 87.2236 298.766C87.2739 298.467 87.3121 298.166 87.3378 297.863C87.3632 297.559 87.376 297.253 87.376 296.945C87.376 296.637 87.3632 296.331 87.3378 296.028C87.3125 295.724 87.2743 295.424 87.2236 295.127C87.1728 294.83 87.1093 294.536 87.0329 294.245C86.9569 293.955 86.8683 293.668 86.7672 293.385C86.6688 293.112 86.5604 292.846 86.4422 292.587C86.3237 292.327 86.194 292.074 86.0527 291.828C85.9128 291.584 85.763 291.347 85.603 291.116C85.4429 290.886 85.273 290.664 85.0926 290.45C84.9138 290.237 84.7265 290.034 84.5309 289.842C84.3353 289.65 84.1328 289.469 83.9234 289.3C83.715 289.131 83.498 288.973 83.2735 288.826C83.0502 288.681 82.8194 288.546 82.5824 288.424C82.3394 288.299 82.0895 288.188 81.834 288.09C81.5814 287.993 81.3233 287.911 81.0615 287.844C80.8001 287.776 80.535 287.724 80.268 287.687C79.9983 287.65 79.7274 287.628 79.4554 287.622L79.457 287.619ZM79.4554 286.731C80.6483 286.764 81.8181 287.068 82.8774 287.619C83.9297 288.17 84.8625 288.925 85.6214 289.84C86.4152 290.794 87.0332 291.882 87.4468 293.052C88.3325 295.571 88.3325 298.319 87.4468 300.838C87.0326 302.012 86.4149 303.103 85.6214 304.061C84.8621 304.98 83.9297 305.741 82.8767 306.299C81.8191 306.857 80.6496 307.168 79.4551 307.209C78.2533 307.249 77.0584 307.01 75.9636 306.512C74.8583 306.004 73.8696 305.273 73.0593 304.365C72.1986 303.404 71.5253 302.289 71.0735 301.079C70.095 298.446 70.095 295.547 71.0735 292.914C71.5256 291.7 72.1989 290.581 73.0593 289.615C73.8692 288.702 74.858 287.965 75.9636 287.45C77.0578 286.944 78.253 286.698 79.457 286.73L79.4554 286.731Z"
                  fill="white"/>
            <path d="M79.4563 299.487L76.6589 293.647L77.3231 293.214L79.6272 298.011L89.3008 286.616L89.8865 287.242L79.4563 299.487Z"
                  fill="white"/>
            <path d="M181.258 414.776L174.333 414.749L176.566 432.881L181.258 432.905V414.776Z" fill="#FFDBDB"/>
            <path d="M182.454 437.467L167.334 437.387V437.195C167.334 436.807 167.372 436.419 167.447 436.037C167.595 435.285 167.892 434.569 168.319 433.932C168.752 433.287 169.308 432.733 169.954 432.302C170.592 431.877 171.307 431.583 172.059 431.437C172.44 431.364 172.827 431.328 173.215 431.331L182.454 431.376V437.467Z"
                  fill="#704FE9"/>
            <path d="M159.086 414.69L152.181 414.663L154.407 432.77L159.086 432.794V414.69Z" fill="#FFDBDB"/>
            <path d="M160.279 437.349L145.199 437.27V437.079C145.199 436.69 145.237 436.303 145.312 435.922C145.46 435.171 145.756 434.456 146.181 433.82C146.613 433.175 147.167 432.622 147.812 432.191C148.448 431.767 149.162 431.474 149.912 431.329C150.292 431.255 150.679 431.22 151.066 431.222L160.279 431.267V437.349Z"
                  fill="#704FE9"/>
            <path d="M158.792 340.581L147.181 384.003L151.431 425.627L160.841 425.887L158.792 388.303L170.532 369.547L173.078 426.143L181.614 425.537L186.363 376.877C187.975 373.077 189.158 369.108 189.889 365.045C190.463 361.855 190.743 358.619 190.723 355.378C190.714 353.196 190.546 351.018 190.222 348.86C190.107 348.056 189.95 347.258 189.753 346.47L186.291 342.953L158.792 340.581Z"
                  fill="#704FE9"/>
            <path d="M174.176 347.843C172.223 347.843 170.391 347.78 168.73 347.656C167.032 347.539 165.344 347.316 163.675 346.989C162.254 346.723 160.869 346.286 159.552 345.688C158.492 345.229 157.57 344.5 156.878 343.573L156.799 343.458L159.973 322.76L163.395 299.489C163.62 297.948 164.403 296.545 165.594 295.546C166.784 294.546 168.3 294.021 169.853 294.069L180.571 294.398C181.375 294.423 182.165 294.609 182.896 294.945C183.627 295.282 184.282 295.762 184.824 296.357C185.366 296.953 185.784 297.651 186.052 298.411C186.319 299.171 186.432 299.977 186.383 300.781L184.976 323.925L190.166 346.755L189.799 346.806C189.651 346.826 189.081 346.901 188.189 347.002C187.023 347.133 185.832 347.251 184.65 347.354C182.977 347.498 181.34 347.611 179.785 347.691C177.812 347.792 175.922 347.841 174.176 347.843Z"
                  fill="#EEB03A"/>
            <path d="M168.228 289.956C168.225 289.956 168.222 289.956 168.219 289.956C167.995 289.956 167.772 289.912 167.564 289.825C167.357 289.739 167.168 289.612 167.009 289.453C166.85 289.294 166.724 289.104 166.638 288.896C166.552 288.688 166.508 288.465 166.508 288.239V278.663C166.507 276.947 166.849 275.249 167.516 273.669C168.821 270.585 171.263 268.125 174.334 266.801C176.276 265.966 178.394 265.627 180.499 265.814C182.604 266.001 184.63 266.708 186.395 267.872C188.16 269.036 189.61 270.621 190.614 272.484C191.618 274.347 192.145 276.431 192.149 278.549V288.139C192.149 288.37 192.103 288.599 192.013 288.811C191.837 289.226 191.508 289.556 191.095 289.733C190.883 289.824 190.654 289.871 190.424 289.872L168.227 289.956H168.228Z"
                  fill="#2E2889"/>
            <path d="M185.117 275.379C186.011 277.015 186.402 278.88 186.238 280.739C186.075 282.598 185.366 284.366 184.201 285.821C183.035 287.276 181.465 288.352 179.69 288.914C177.914 289.475 176.013 289.497 174.225 288.976C173.041 288.635 171.937 288.062 170.975 287.291C170.014 286.519 169.215 285.564 168.625 284.48C167.733 282.844 167.344 280.98 167.508 279.124C167.672 277.267 168.38 275.5 169.544 274.046C170.708 272.592 172.276 271.516 174.05 270.954C175.823 270.391 177.723 270.368 179.51 270.886C180.695 271.226 181.8 271.798 182.763 272.569C183.726 273.34 184.526 274.295 185.117 275.379V275.379Z"
                  fill="#FFDBDB"/>
            <path d="M163.478 279.443C163.476 278.086 163.747 276.742 164.274 275.492C165.306 273.054 167.238 271.109 169.666 270.062C170.912 269.527 172.252 269.249 173.608 269.244L175.52 269.234C175.542 269.234 175.563 269.234 175.585 269.234C176.909 269.235 178.22 269.497 179.444 270.006C180.667 270.514 181.778 271.259 182.714 272.199C183.65 273.138 184.392 274.252 184.898 275.479C185.404 276.705 185.665 278.019 185.664 279.346V279.538L181.618 279.555L180.238 275.692L179.962 279.562L177.872 279.571L177.177 277.623L177.037 279.574L163.479 279.635L163.478 279.443Z"
                  fill="#2E2889"/>
            <path d="M147.189 299.587C146.566 299.74 145.984 300.026 145.482 300.425C145.09 300.737 144.755 301.113 144.491 301.539C143.971 302.382 143.743 303.373 143.839 304.358C143.888 304.857 144.023 305.343 144.238 305.794C144.502 306.358 144.883 306.858 145.355 307.263C145.827 307.668 146.38 307.968 146.975 308.143C147.572 308.318 148.198 308.364 148.813 308.279C149.429 308.194 150.019 307.979 150.545 307.648C150.584 307.623 150.623 307.598 150.661 307.572C150.699 307.546 150.736 307.52 150.772 307.493C150.81 307.466 150.846 307.438 150.881 307.411C150.917 307.383 150.953 307.355 150.987 307.326L173.314 315.289C174.001 315.534 174.749 315.549 175.445 315.331C176.141 315.113 176.747 314.674 177.173 314.081L182.466 306.737L176.067 302.418L172.709 306.241L152.276 302.169C152.253 302.115 152.23 302.063 152.207 302.01C152.183 301.957 152.158 301.905 152.132 301.853C152.105 301.801 152.078 301.75 152.05 301.698C152.022 301.647 151.993 301.596 151.961 301.545C151.474 300.756 150.75 300.142 149.892 299.79C149.035 299.438 148.089 299.367 147.189 299.587Z"
                  fill="#FFDBDB"/>
            <path d="M173.069 303.831C173.737 302.996 174.67 301.911 175.619 300.835C176.568 299.76 177.531 298.694 178.257 297.896C178.983 297.099 179.472 296.57 179.472 296.57C180.142 295.554 181.143 294.802 182.303 294.442C183.464 294.082 184.714 294.135 185.84 294.593C186.966 295.052 187.899 295.886 188.48 296.955C189.061 298.025 189.256 299.263 189.03 300.459C188.9 301.148 188.633 301.804 188.245 302.387C188.245 302.387 187.517 303.342 186.417 304.767C185.317 306.193 183.846 308.091 182.363 309.978C180.879 311.865 179.381 313.742 178.225 315.127C177.07 316.513 176.257 317.408 176.142 317.331L172.113 305.327C171.998 305.25 172.401 304.666 173.069 303.831Z"
                  fill="#EEB03A"/>
            <path d="M175.46 289.655C175.397 289.964 175.421 290.286 175.531 290.582C175.586 290.734 175.662 290.877 175.757 291.007C175.838 291.118 175.932 291.22 176.037 291.308C176.347 291.571 176.741 291.715 177.148 291.713C177.173 291.713 177.198 291.712 177.224 291.711C177.249 291.71 177.274 291.708 177.3 291.705C177.325 291.704 177.351 291.701 177.376 291.697C177.401 291.694 177.427 291.689 177.452 291.685L178.888 291.423L180.866 287.189V291.068L187.395 289.89V273.429L176.45 273.482L176.72 273.797C177.619 274.854 178.208 276.139 178.425 277.51C178.637 278.898 178.611 280.313 178.346 281.692C178.089 283.089 177.699 284.457 177.181 285.778C176.728 286.948 176.208 288.092 175.624 289.202C175.549 289.345 175.493 289.497 175.46 289.655Z"
                  fill="#2E2889"/>
            <path d="M136.52 277.288C137.247 277.288 137.837 276.698 137.837 275.971C137.837 275.244 137.247 274.654 136.52 274.654C135.793 274.654 135.203 275.244 135.203 275.971C135.203 276.698 135.793 277.288 136.52 277.288Z"
                  fill="#E6E6E6"/>
            <path d="M150.349 269.386C151.076 269.386 151.666 268.796 151.666 268.069C151.666 267.341 151.076 266.752 150.349 266.752C149.622 266.752 149.032 267.341 149.032 268.069C149.032 268.796 149.622 269.386 150.349 269.386Z"
                  fill="#E6E6E6"/>
        </g>
    </g>
</svg>
