<svg width="375" height="457" viewBox="0 0 375 457" fill="none" xmlns="http://www.w3.org/2000/svg">
    <g clip-path="url(#clip0_4_3253)">
        <defs>
            <linearGradient id="paint0_linear_4_3253" x1="81.5412" y1="24" x2="7.93263" y2="97.6086"
                            gradientUnits="userSpaceOnUse">
                <stop stop-color="#111A58"/>
                <stop offset="1" stop-color="#21111A" stop-opacity="0"/>
            </linearGradient>
            <radialGradient id="paint1_radial_4_3253" cx="0" cy="0" r="1" gradientUnits="userSpaceOnUse"
                            gradientTransform="translate(247.366 401.117) rotate(-132.97) scale(135.233 346.249)">
                <stop stop-color="#A793F1" stop-opacity="0.4"/>
                <stop offset="1" stop-color="#4B36B9" stop-opacity="0.5"/>
            </radialGradient>
            <linearGradient id="paint2_linear_4_3253" x1="210.018" y1="230.01" x2="274.337" y2="360.281"
                            gradientUnits="userSpaceOnUse">
                <stop stop-color="white"/>
                <stop offset="1" stop-color="white" stop-opacity="0"/>
            </linearGradient>
            <linearGradient id="paint3_linear_4_3253" x1="290.137" y1="297.602" x2="230.072" y2="364.082"
                            gradientUnits="userSpaceOnUse">
                <stop stop-color="#624EC3"/>
                <stop offset="1" stop-color="white"/>
            </linearGradient>
            <linearGradient id="paint4_linear_4_3253" x1="293.014" y1="252.597" x2="275.934" y2="289.2"
                            gradientUnits="userSpaceOnUse">
                <stop stop-color="#EEB03A"/>
                <stop offset="1" stop-color="white" stop-opacity="0.2"/>
            </linearGradient>
            <radialGradient id="paint5_radial_4_3253" cx="0" cy="0" r="1" gradientUnits="userSpaceOnUse"
                            gradientTransform="translate(222.911 203.959) rotate(109.376) scale(80.8053 93.2662)">
                <stop stop-color="#FFE9BF"/>
                <stop offset="1" stop-color="#F3A043"/>
            </radialGradient>
            <linearGradient id="paint6_linear_4_3253" x1="237.125" y1="264.216" x2="214.605" y2="287.348"
                            gradientUnits="userSpaceOnUse">
                <stop stop-color="#391BA4"/>
                <stop offset="1" stop-color="#AD9ACA"/>
            </linearGradient>
            <clipPath id="clip0_4_3253">
                <rect width="375" height="457" fill="white"/>
            </clipPath>
            <clipPath id="clip1_4_3253">
                <rect width="100" height="85.3035" fill="white" transform="translate(39 24)"/>
            </clipPath>
            <clipPath id="clip2_4_3253">
                <rect width="350" height="314.086" fill="white" transform="translate(12 143)"/>
            </clipPath>
        </defs>
        <rect width="375" height="457" fill="#F7F7F8"/>
        <rect x="121" y="445" width="134" height="3" rx="1.5" fill="#FCFCFC"/>
        <g clip-path="url(#clip1_4_3253)">
            <path fill-rule="evenodd" clip-rule="evenodd"
                  d="M81.5412 27.1773C63.5406 27.1773 45.3019 38.3927 40.6146 54.8938C45.6797 37.0626 62.0829 24 81.5412 24C105.036 24 124.082 43.0463 124.082 66.5412C124.082 90.0358 105.036 109.082 81.5412 109.082C58.0463 109.082 39 90.0358 39 66.5412C39 88.2811 59.8011 103.434 81.5412 103.434C103.281 103.434 119.493 88.2811 119.493 66.5412C119.493 44.8011 103.281 27.1773 81.5412 27.1773Z"
                  fill="url(#paint0_linear_4_3253)"/>
            <path d="M60.5619 68.629C59.8219 69.4453 58.8523 70.0322 57.602 70.0322C55.8668 70.0322 54.2848 68.782 54.2848 66.7405C54.2848 64.7248 55.8413 63.4743 57.4744 63.4743C58.5206 63.4743 59.4647 63.7552 60.3323 64.5973L61.7102 62.2753C60.6385 61.2034 58.9799 60.7188 57.0916 60.7188C53.5959 60.7188 51.1462 63.398 51.1462 66.7405C51.1462 70.3641 53.6469 72.7625 57.3723 72.7625C59.2351 72.7625 60.9702 72.0737 61.9398 70.7721L60.5619 68.629Z"
                  fill="#111A58"/>
            <path d="M72.1288 72.482H75.0633V60.9993H64.2952V72.482H67.2296V63.7552H72.1288V72.482Z" fill="#111A58"/>
            <path d="M89.3987 60.9993H86.0559L83.9891 67.251C83.785 67.8379 83.6827 68.3993 83.5808 68.9351C83.4022 68.3737 83.2492 67.8379 83.0195 67.2766L80.3403 60.9993H76.8188L82.1262 72.482L81.8712 73.0942C81.3863 74.2935 80.8505 74.8804 80.1105 74.8804C79.6511 74.8804 79.2176 74.6507 78.9112 74.4721L77.9671 76.6922C78.6307 77.1769 79.3962 77.5852 80.4422 77.5852C82.1262 77.5852 83.1981 76.59 84.8821 72.482L89.3987 60.9993Z"
                  fill="#111A58"/>
            <path d="M90.0579 63.9338H93.8345V72.482H96.7687V63.9338H100.52V60.9993H90.0579V63.9338Z" fill="#111A58"/>
            <path d="M110.581 72.482H113.516V60.9993H110.581V65.3373H105.555V60.9993H102.62V72.482H105.555V68.0929H110.581V72.482Z"
                  fill="#111A58"/>
            <path d="M138.459 60.9993H134.759L130.625 66.6897L135.167 72.482H138.995L134.044 66.46L138.459 60.9993ZM127.589 72.482H130.523V60.9993H127.589V72.482Z"
                  fill="#111A58"/>
        </g>
        <g clip-path="url(#clip2_4_3253)">
            <path d="M17.9751 379.013C-2.59451 304.899 31.6629 232.13 94.3493 188.707C211.116 107.822 302.02 147.317 335.953 206.825C369.091 264.941 337.122 426.844 218.605 443.985C100.088 461.126 32.8014 432.434 17.9751 379.013Z"
                  fill="#7C87D6"/>
            <path d="M31.4515 387.014C10.8818 312.9 45.1392 240.131 107.825 196.708C224.592 115.823 315.496 155.318 349.43 214.826C382.569 272.942 350.599 434.845 232.081 451.986C113.564 469.127 46.2777 440.434 31.4515 387.014Z"
                  fill="#111A58"/>
            <path d="M197.788 329.955L199.2 323.226L189.274 321.032L187.862 327.761C186.205 327.845 184.586 328.142 183.038 328.638L179.325 322.838L170.817 328.378L174.53 334.178C173.446 335.396 172.511 336.761 171.754 338.249L165.092 336.778L162.988 346.809L169.65 348.281C169.744 349.958 170.047 351.598 170.547 353.165L164.836 356.886L170.365 365.532L176.076 361.811C177.286 362.916 178.642 363.875 180.117 364.646L178.706 371.379L188.632 373.573L190.043 366.841C191.701 366.76 193.319 366.46 194.864 365.965L198.577 371.769L207.085 366.229L203.371 360.425C204.455 359.207 205.39 357.842 206.147 356.353L212.809 357.825L214.913 347.793L208.251 346.322C208.157 344.644 207.854 343.004 207.354 341.438L213.065 337.717L207.536 329.071L201.828 332.791C200.62 331.69 199.264 330.731 197.788 329.955ZM186.504 358.99C180.119 357.577 176.038 351.2 177.393 344.748C178.748 338.296 185.022 334.206 191.407 335.619C197.791 337.032 201.872 343.408 200.517 349.861C199.163 356.313 192.889 360.402 186.504 358.99Z"
                  fill="white"/>
            <path d="M144.646 254.177C142.204 254.731 139.765 254.703 137.477 254.179C135.806 253.796 130.675 256.351 129.223 255.481C127.901 254.69 130.236 250.511 129.186 249.371C127.337 247.369 125.973 244.868 125.325 242.019C123.349 233.324 128.793 224.674 137.483 222.698C146.178 220.721 154.828 226.165 156.804 234.856C158.784 243.551 153.341 252.201 144.646 254.177Z"
                  fill="#EEB03A"/>
            <path d="M141.842 235.457C140.288 235.04 138.691 235.962 138.274 237.516C137.858 239.07 138.78 240.668 140.334 241.084C141.888 241.501 143.485 240.578 143.902 239.024C144.318 237.47 143.396 235.873 141.842 235.457Z"
                  fill="white"/>
            <path d="M133.704 235.305C132.15 234.888 130.553 235.81 130.137 237.364C129.72 238.919 130.643 240.516 132.196 240.932C133.75 241.349 135.348 240.426 135.764 238.872C136.181 237.318 135.259 235.721 133.704 235.305Z"
                  fill="white"/>
            <path d="M150.043 235.606C148.489 235.19 146.892 236.112 146.475 237.666C146.059 239.22 146.981 240.818 148.535 241.234C150.089 241.65 151.687 240.728 152.103 239.174C152.519 237.62 151.597 236.023 150.043 235.606Z"
                  fill="white"/>
            <path d="M239.185 387.933C264.172 360.404 255.482 336.899 224.878 321.075C194.273 305.252 184.405 331.29 184.405 331.29C184.405 331.29 189.213 315.717 195.569 298.067C200.988 283.04 178.704 250.789 142.899 266.559C114.254 279.174 129.149 313.962 129.149 313.962C129.149 313.962 121.952 312.18 113.673 308.313C84.5995 297.701 57.9659 338.998 113.1 375.129C207.332 433.946 239.185 387.933 239.185 387.933Z"
                  fill="url(#paint1_radial_4_3253)"/>
            <path d="M95.0964 419.001H99.4952L101.588 402.034L95.0957 402.034L95.0964 419.001Z" fill="#FFDBDB"/>
            <path d="M93.9741 417.565L102.637 417.564H102.637C104.102 417.564 105.506 418.146 106.541 419.181C107.576 420.217 108.158 421.621 108.158 423.085V423.264L93.9744 423.265L93.9741 417.565Z"
                  fill="#704FE9"/>
            <path d="M124.154 419.001H128.553L130.646 402.034L124.154 402.034L124.154 419.001Z" fill="#FFDBDB"/>
            <path d="M219.799 392.119L220.447 389.031L215.892 388.024L215.245 391.112C214.484 391.15 213.741 391.286 213.031 391.514L211.327 388.852L207.423 391.395L209.127 394.056C208.63 394.615 208.2 395.241 207.853 395.925L204.796 395.249L203.831 399.852L206.888 400.528C206.931 401.297 207.07 402.05 207.299 402.769L204.679 404.476L207.216 408.443L209.837 406.736C210.392 407.243 211.014 407.683 211.691 408.037L211.043 411.126L215.598 412.133L216.246 409.044C217.006 409.007 217.748 408.869 218.457 408.642L220.162 411.305L224.065 408.763L222.361 406.1C222.859 405.541 223.288 404.915 223.635 404.232L226.692 404.907L227.657 400.304L224.6 399.628C224.557 398.859 224.418 398.106 224.189 397.387L226.81 395.68L224.272 391.713L221.653 393.42C221.099 392.914 220.477 392.474 219.799 392.119ZM214.621 405.441C211.692 404.793 209.819 401.867 210.441 398.906C211.063 395.946 213.942 394.069 216.871 394.718C219.801 395.366 221.674 398.291 221.052 401.252C220.43 404.213 217.551 406.09 214.621 405.441Z"
                  fill="white"/>
            <path d="M123.032 417.565L131.695 417.564H131.695C133.159 417.564 134.563 418.146 135.599 419.181C136.634 420.217 137.216 421.621 137.216 423.085V423.264L123.032 423.265L123.032 417.565Z"
                  fill="#704FE9"/>
            <path d="M91.4131 415.322H102.808L110.091 351.55L123.482 415.322H131.17V339.276L94.615 328.336L91.4131 415.322Z"
                  fill="#704FE9"/>
            <path d="M110.842 272.226C116.33 272.226 120.78 267.777 120.78 262.289C120.78 256.801 116.33 252.352 110.842 252.352C105.354 252.352 100.905 256.801 100.905 262.289C100.905 267.777 105.354 272.226 110.842 272.226Z"
                  fill="#FFDBDB"/>
            <path d="M95.4155 329.937C106.078 338.276 117.847 342.479 131.17 340.877C125.544 321.121 123.875 301.514 129.302 282.175L118.096 277.106L105.499 276.305L96.3431 278.998C95.055 279.377 93.9273 280.169 93.134 281.252C92.3403 282.335 91.9246 283.649 91.9514 284.992C92.2746 301.484 91.178 316.918 95.4155 329.937Z"
                  fill="#E2D5F5"/>
            <path d="M101.332 257.292C102.288 255.488 103.503 251.893 105.432 251.227C106.504 250.871 107.611 250.635 108.734 250.523L112.014 251.784L110.229 250.396C110.577 250.375 110.924 250.359 111.271 250.345L113.484 251.197L112.352 250.316C114.415 250.295 116.544 250.509 118.143 251.765C119.506 252.836 120.856 256.892 121.074 258.611C121.308 260.255 121.226 261.93 120.834 263.544L120.273 264.077C120.077 263.627 119.93 263.158 119.833 262.677C119.633 261.779 119.247 260.932 118.701 260.191C118.154 259.45 117.46 258.831 116.661 258.373L116.63 258.356C115.691 257.827 114.55 257.851 113.472 257.89L108.353 258.074C107.121 258.118 105.795 258.196 104.835 258.969C104.186 259.491 103.798 260.261 103.428 261.006C102.951 261.97 102.019 265.601 102.019 265.601C102.019 265.601 101.491 264.916 101.238 265.426C100.833 264.095 100.587 262.72 100.504 261.331C100.423 259.936 100.709 258.543 101.332 257.292Z"
                  fill="white"/>
            <path d="M306.178 323.747H191.46C189.498 323.745 187.618 322.965 186.231 321.578C184.844 320.191 184.064 318.31 184.062 316.349V237.245C184.064 235.284 184.844 233.403 186.231 232.016C187.618 230.629 189.498 229.849 191.46 229.847H306.178C308.139 229.849 310.02 230.629 311.407 232.016C312.794 233.403 313.574 235.284 313.576 237.245V316.349C313.574 318.31 312.794 320.191 311.407 321.578C310.02 322.965 308.139 323.745 306.178 323.747ZM191.46 230.5C189.672 230.502 187.957 231.213 186.692 232.478C185.428 233.742 184.716 235.457 184.715 237.245V316.349C184.716 318.137 185.428 319.852 186.692 321.116C187.957 322.381 189.672 323.092 191.46 323.094H306.178C307.966 323.092 309.681 322.381 310.945 321.116C312.21 319.852 312.921 318.137 312.923 316.349V237.245C312.921 235.457 312.21 233.742 310.945 232.478C309.681 231.213 307.966 230.502 306.178 230.5H191.46Z"
                  fill="#F0F0F0"/>
            <path d="M174.821 328.103V248.999C174.823 247.124 175.569 245.327 176.894 244.001C178.22 242.675 180.018 241.929 181.892 241.927H296.61C298.485 241.929 300.283 242.675 301.609 244.001C302.934 245.327 303.68 247.124 303.682 248.999V328.103C303.68 329.978 302.934 331.775 301.609 333.101C300.283 334.427 298.485 335.172 296.61 335.175H181.892C180.018 335.172 178.22 334.427 176.894 333.101C175.569 331.775 174.823 329.978 174.821 328.103Z"
                  fill="#7C87D6"/>
            <path d="M179.333 328.242V248.86C179.333 248.282 179.563 247.728 179.972 247.319C180.38 246.91 180.934 246.681 181.513 246.68H296.99C297.568 246.681 298.122 246.91 298.531 247.319C298.94 247.728 299.17 248.282 299.17 248.86V328.242C299.17 328.82 298.94 329.374 298.531 329.783C298.122 330.191 297.568 330.421 296.99 330.422H181.513C180.934 330.421 180.38 330.191 179.972 329.783C179.563 329.374 179.333 328.82 179.333 328.242Z"
                  fill="url(#paint2_linear_4_3253)"/>
            <path d="M101.666 336.451C101.663 335.954 101.552 335.462 101.339 335.012C101.126 334.562 100.817 334.164 100.434 333.846C100.051 333.528 99.6025 333.298 99.1209 333.172C98.639 333.046 98.1356 333.027 97.6459 333.117L91.6821 322.584L89.2217 327.627L94.9209 337.328C95.126 338.141 95.6226 338.85 96.3157 339.322C97.0092 339.793 97.8512 339.994 98.6825 339.886C99.514 339.777 100.277 339.368 100.827 338.735C101.376 338.103 101.675 337.29 101.666 336.451Z"
                  fill="#FFDBDB"/>
            <path d="M128.331 348.161C128.095 347.722 127.959 347.237 127.931 346.74C127.904 346.243 127.985 345.746 128.171 345.284C128.356 344.822 128.641 344.406 129.004 344.065C129.367 343.725 129.801 343.468 130.274 343.314L130.495 331.211L135.682 334.769L134.678 345.716C134.885 346.528 134.786 347.389 134.402 348.134C134.017 348.879 133.373 349.456 132.59 349.758C131.808 350.059 130.942 350.063 130.157 349.769C129.372 349.475 128.722 348.903 128.331 348.161Z"
                  fill="#FFDBDB"/>
            <path d="M92.2137 335.007L96.4829 331.004L94.2918 309.392L96.8267 278.84C91.3204 280.57 85.408 285.219 84.434 290.909L80.9507 311.259L92.2137 335.007Z"
                  fill="#E2D5F5"/>
            <path opacity="0.2" d="M94.6924 297.784L91.2234 311.659L96.4829 331.348L93.0913 312.726L94.6924 297.784Z"
                  fill="#CEBEF3"/>
            <path d="M129.036 342.478L135.973 343.279L134.349 291.763C134.276 289.461 133.542 287.229 132.235 285.333C130.927 283.438 129.101 281.958 126.976 281.072L124.5 280.041L125.167 304.189L129.036 342.478Z"
                  fill="#E2D5F5"/>
            <path d="M291.692 321.325L300.67 318.16L296.132 304.838L287.154 308.003C285.864 306.103 284.35 304.4 282.65 302.925L286.845 294.363L274.174 288.277L269.979 296.839C267.76 296.431 265.473 296.306 263.167 296.48L260.12 287.539L246.737 292.259L249.784 301.2C247.867 302.517 246.144 304.055 244.649 305.771L236.141 301.688L229.884 314.445L238.392 318.529C237.954 320.754 237.794 323.048 237.941 325.348L228.959 328.517L233.497 341.84L242.478 338.671C243.765 340.574 245.283 342.273 246.979 343.745L242.78 352.311L255.45 358.397L259.65 349.831C261.869 350.239 264.156 350.364 266.462 350.19L269.509 359.131L282.892 354.411L279.845 345.47C281.762 344.153 283.485 342.615 284.98 340.898L293.488 344.982L299.745 332.225L291.241 328.145C291.675 325.923 291.835 323.63 291.692 321.325ZM249.225 328.84C246.308 320.269 250.92 310.857 259.53 307.823C268.139 304.789 277.487 309.275 280.404 317.845C283.321 326.416 278.708 335.828 270.099 338.862C261.49 341.896 252.142 337.411 249.225 328.84Z"
                  fill="url(#paint3_linear_4_3253)"/>
            <path d="M296.825 262.614L300.275 260.061L296.555 254.921L293.105 257.473C292.298 256.826 291.42 256.293 290.492 255.882L291.166 251.636L284.899 250.692L284.226 254.937C283.215 255.055 282.213 255.304 281.242 255.685L278.745 252.235L273.603 256.042L276.1 259.492C275.448 260.313 274.91 261.204 274.493 262.141L270.286 261.508L269.279 267.834L273.486 268.467C273.592 269.484 273.826 270.494 274.195 271.466L270.744 274.021L274.464 279.162L277.914 276.607C278.721 277.256 279.6 277.788 280.526 278.197L279.851 282.445L286.117 283.389L286.792 279.141C287.803 279.024 288.805 278.775 289.776 278.394L292.273 281.844L297.415 278.037L294.918 274.588C295.57 273.766 296.108 272.875 296.525 271.938L300.732 272.571L301.739 266.245L297.534 265.613C297.427 264.598 297.192 263.588 296.825 262.614ZM279.52 271.476C277.128 268.169 277.869 263.502 281.177 261.055C284.485 258.607 289.108 259.302 291.5 262.609C293.892 265.916 293.151 270.583 289.843 273.031C286.534 275.479 281.912 274.783 279.52 271.476Z"
                  fill="url(#paint4_linear_4_3253)"/>
            <path opacity="0.2" d="M126.438 304.977L129.116 334.708L124.582 305.185L126.438 304.977Z" fill="#CEBEF3"/>
            <path d="M241.386 217.578C235.898 200.6 216.974 192.059 199.938 199.393C185.608 205.559 177.544 221.447 181.182 236.317C183.728 246.717 191.151 254.298 200.322 257.553C204.88 259.174 208.351 262.869 209.836 267.47L210.113 268.345C210.81 270.503 213.148 271.63 215.33 270.864L233.446 264.504C235.627 263.738 236.829 261.363 236.131 259.205L235.847 258.337C234.323 253.613 235.146 248.443 237.854 244.139C242.758 236.405 244.343 226.739 241.386 217.578Z"
                  fill="url(#paint5_radial_4_3253)"/>
            <path fill-rule="evenodd" clip-rule="evenodd"
                  d="M213.213 275.166L237.441 266.657C237.976 266.472 238.273 265.882 238.106 265.353C237.931 264.817 237.357 264.545 236.821 264.73L212.593 273.239C212.051 273.43 211.762 274.013 211.929 274.543C212.104 275.079 212.678 275.35 213.213 275.166ZM214.246 278.355L238.475 269.846C239.01 269.662 239.306 269.072 239.139 268.542C238.964 268.006 238.39 267.735 237.855 267.919L213.627 276.428C213.085 276.62 212.795 277.203 212.962 277.732C213.137 278.268 213.711 278.54 214.246 278.355ZM239.509 273.037L215.28 281.546C214.746 281.73 214.171 281.459 213.997 280.923C213.829 280.393 214.119 279.81 214.661 279.619L238.889 271.11C239.424 270.925 239.999 271.196 240.173 271.732C240.334 272.269 240.037 272.845 239.509 273.037ZM216.306 284.729L240.534 276.219C241.069 276.035 241.366 275.458 241.198 274.915C241.024 274.38 240.45 274.108 239.915 274.292L215.687 282.802C215.145 282.993 214.855 283.576 215.023 284.106C215.197 284.642 215.771 284.913 216.306 284.729Z"
                  fill="url(#paint6_linear_4_3253)"/>
            <path d="M277.112 192.953C278.374 192.953 279.397 191.857 279.397 190.505C279.397 189.152 278.374 188.056 277.112 188.056C275.85 188.056 274.827 189.152 274.827 190.505C274.827 191.857 275.85 192.953 277.112 192.953Z"
                  fill="#E6E6E6"/>
            <path d="M54.1175 334.325C55.3797 334.325 56.4029 333.228 56.4029 331.876C56.4029 330.524 55.3797 329.427 54.1175 329.427C52.8553 329.427 51.832 330.524 51.832 331.876C51.832 333.228 52.8553 334.325 54.1175 334.325Z"
                  fill="#E6E6E6"/>
            <path d="M279.397 386.89C280.66 386.89 281.683 385.794 281.683 384.441C281.683 383.089 280.66 381.993 279.397 381.993C278.135 381.993 277.112 383.089 277.112 384.441C277.112 385.794 278.135 386.89 279.397 386.89Z"
                  fill="#E6E6E6"/>
            <path d="M155.004 293.84C156.266 293.84 157.289 292.743 157.289 291.391C157.289 290.038 156.266 288.942 155.004 288.942C153.741 288.942 152.718 290.038 152.718 291.391C152.718 292.743 153.741 293.84 155.004 293.84Z"
                  fill="#E6E6E6"/>
            <path d="M152.718 426.395C153.981 426.395 155.004 425.299 155.004 423.947C155.004 422.594 153.981 421.498 152.718 421.498C151.456 421.498 150.433 422.594 150.433 423.947C150.433 425.299 151.456 426.395 152.718 426.395Z"
                  fill="#E6E6E6"/>
            <path d="M61.6268 277.841C62.348 277.841 62.9327 277.257 62.9327 276.535C62.9327 275.814 62.348 275.229 61.6268 275.229C60.9055 275.229 60.3208 275.814 60.3208 276.535C60.3208 277.257 60.9055 277.841 61.6268 277.841Z"
                  fill="#E6E6E6"/>
            <path d="M178.185 176.955C178.906 176.955 179.491 176.37 179.491 175.649C179.491 174.928 178.906 174.343 178.185 174.343C177.464 174.343 176.879 174.928 176.879 175.649C176.879 176.37 177.464 176.955 178.185 176.955Z"
                  fill="#E6E6E6"/>
            <path d="M149.127 316.694C149.848 316.694 150.433 316.109 150.433 315.388C150.433 314.667 149.848 314.082 149.127 314.082C148.406 314.082 147.821 314.667 147.821 315.388C147.821 316.109 148.406 316.694 149.127 316.694Z"
                  fill="#E6E6E6"/>
            <path d="M346.328 241.927C347.05 241.927 347.634 241.342 347.634 240.621C347.634 239.9 347.05 239.315 346.328 239.315C345.607 239.315 345.022 239.9 345.022 240.621C345.022 241.342 345.607 241.927 346.328 241.927Z"
                  fill="#E6E6E6"/>
            <path d="M286.907 216.134C287.628 216.134 288.213 215.55 288.213 214.828C288.213 214.107 287.628 213.522 286.907 213.522C286.185 213.522 285.601 214.107 285.601 214.828C285.601 215.55 286.185 216.134 286.907 216.134Z"
                  fill="#E6E6E6"/>
            <path d="M151.412 202.748C152.134 202.748 152.718 202.163 152.718 201.442C152.718 200.721 152.134 200.136 151.412 200.136C150.691 200.136 150.106 200.721 150.106 201.442C150.106 202.163 150.691 202.748 151.412 202.748Z"
                  fill="#E6E6E6"/>
            <path d="M71.095 357.179C71.8162 357.179 72.401 356.594 72.401 355.873C72.401 355.152 71.8162 354.567 71.095 354.567C70.3738 354.567 69.7891 355.152 69.7891 355.873C69.7891 356.594 70.3738 357.179 71.095 357.179Z"
                  fill="#E6E6E6"/>
            <path d="M64.2388 409.091C64.9601 409.091 65.5448 408.507 65.5448 407.785C65.5448 407.064 64.9601 406.479 64.2388 406.479C63.5176 406.479 62.9329 407.064 62.9329 407.785C62.9329 408.507 63.5176 409.091 64.2388 409.091Z"
                  fill="#E6E6E6"/>
            <path d="M237.933 439.455C238.654 439.455 239.239 438.87 239.239 438.149C239.239 437.428 238.654 436.843 237.933 436.843C237.212 436.843 236.627 437.428 236.627 438.149C236.627 438.87 237.212 439.455 237.933 439.455Z"
                  fill="#E6E6E6"/>
            <path d="M230.097 370.565C230.818 370.565 231.403 369.981 231.403 369.259C231.403 368.538 230.818 367.953 230.097 367.953C229.376 367.953 228.791 368.538 228.791 369.259C228.791 369.981 229.376 370.565 230.097 370.565Z"
                  fill="#E6E6E6"/>
            <path d="M333.269 342.161C333.99 342.161 334.575 341.576 334.575 340.855C334.575 340.133 333.99 339.549 333.269 339.549C332.547 339.549 331.963 340.133 331.963 340.855C331.963 341.576 332.547 342.161 333.269 342.161Z"
                  fill="#E6E6E6"/>
        </g>
    </g>
</svg>
